<?xml version="1.0" encoding="UTF-8"?>
<!DOCTYPE svg PUBLIC "-//W3C//DTD SVG 1.1//EN" "http://www.w3.org/Graphics/SVG/1.1/DTD/svg11.dtd">
<svg xmlns="http://www.w3.org/2000/svg" xmlns:xlink="http://www.w3.org/1999/xlink">
    <symbol id="arrow" viewBox="0 0 7 10">
        <path d="M425.857 1730.346l4.596 4.596-4.596 4.595" fill-opacity="0" stroke="#fff" stroke-miterlimit="50" transform="translate(-425 -1730)"></path>
    </symbol>

    <symbol id="close" viewBox="0 0 14 15">
        <g fill-opacity="0" stroke="#7c7c7c" stroke-miterlimit="50" transform="translate(-863 -290)">
            <path d="M863.433 290.94l12.74 12.74"></path>
            <path d="M876.173 290.94l-12.74 12.74"></path>
        </g>
    </symbol>

    <symbol id="cians" viewBox="0 0 106 106">
        <path d="M103.1816,67.2412c-0.955,4.552 -3.546,11.434 -10.166,19.185c-2.9,3.396 -6.219,6.148 -9.776,8.415c-3.559,2.269 -7.379,3.976 -11.462,5.121c-4.081,1.148 -8.343,1.719 -12.785,1.719c-4.775,0 -9.18,-0.752 -13.215,-2.255c-4.036,-1.504 -7.462,-3.69 -10.279,-6.555c-2.293,-2.387 -4.19,-5.359 -5.695,-8.916c-1.503,-3.558 -2.614,-7.917 -3.329,-13.074c-0.716,-5.157 -1.076,-11.077 -1.076,-17.762c0,-0.3 0.018,-0.564 0.02,-0.861c-0.002,-0.297 -0.02,-0.56 -0.02,-0.86c0,-6.686 0.36,-12.605 1.076,-17.762c0.715,-5.158 1.826,-9.517 3.329,-13.074c1.505,-3.557 3.402,-6.529 5.695,-8.917c2.817,-2.864 6.243,-5.05 10.279,-6.554c4.035,-1.503 8.44,-2.256 13.215,-2.256c4.442,0 8.704,0.572 12.785,1.719c2.603,0.73 5.044,1.806 7.423,3.016l0.003,-0.04c0.128,0.072 0.247,0.15 0.374,0.223c0.312,0.162 0.637,0.293 0.946,0.46c1.218,0.632 2.379,1.479 3.508,2.425c10.636,6.68 19.329,20.02 19.329,37.652h2.728v0v-44.984v0h-2.728c-3.414,8.534 -7.283,9.207 -10.838,8.663c-1.51,-0.232 -3.652,-1.61 -6.967,-3.754c-1.864,-1.204 -3.44,-2.12 -5.032,-2.917v0.047c-6.804,-3.403 -14.509,-5.16 -23.177,-5.16c-10.221,0 -19.748,2.374 -28.581,7.127c-8.834,4.75 -15.855,11.15 -21.058,19.195c-5.152,7.962 -7.743,16.549 -7.797,25.751c0.054,9.203 2.645,19.273 7.797,27.234c5.203,8.046 12.224,14.446 21.058,19.196c8.833,4.752 18.36,7.126 28.581,7.126c16.233,0 29.198,-5.967 38.893,-17.905c2.436,-3.057 4.345,-5.993 5.731,-8.812c1.358,-2.764 3.414,-8.033 3.73,-11.856z" fill="#ffffff"></path>
    </symbol>
    
    <symbol id="who" viewBox="0 0 169 124">
        <path d="M109.533,23.6408c6.353,6.354 10.285,15.12 10.286,24.792c-0.001,10.039 -4.24,19.103 -11.023,25.506l-0.379,0.352c-6.246,5.723 -14.557,9.219 -23.675,9.219c-9.119,0 -17.431,-3.497 -23.678,-9.22l-0.379,-0.354c-6.783,-6.4 -11.02,-15.464 -11.021,-25.503c0.001,-9.672 3.933,-18.438 10.285,-24.792c6.354,-6.352 15.12,-10.285 24.793,-10.285c9.671,0 18.437,3.933 24.791,10.285zM103.552,71.4238l-0.243,-0.458c-3.619,-6.848 -10.681,-11.161 -18.567,-11.16c-7.889,-0.001 -14.951,4.312 -18.568,11.16l-0.242,0.458l0.407,0.323c5.062,4.006 11.46,6.4 18.403,6.4c6.94,0 13.339,-2.394 18.402,-6.4zM77.15,46.8528c0.001,4.187 3.403,7.589 7.592,7.59c4.186,-0.001 7.588,-3.403 7.589,-7.59v-2.569c-0.001,-4.187 -3.403,-7.588 -7.589,-7.59c-4.189,0.002 -7.591,3.403 -7.592,7.59zM108.082,66.8018c3.988,-5.057 6.374,-11.442 6.374,-18.369c-0.002,-16.386 -13.329,-29.713 -29.714,-29.714c-16.387,0.001 -29.715,13.328 -29.716,29.714c0,6.927 2.385,13.312 6.375,18.369l0.548,0.695l0.471,-0.75c2.957,-4.72 7.286,-8.318 12.354,-10.371l0.815,-0.331l-0.58,-0.66c-2.005,-2.282 -3.22,-5.264 -3.22,-8.532v-2.567c0,-3.573 1.451,-6.808 3.798,-9.156c2.348,-2.348 5.582,-3.799 9.155,-3.799c3.571,0 6.806,1.451 9.154,3.799c2.347,2.348 3.798,5.583 3.798,9.156v2.567c0,3.268 -1.216,6.25 -3.22,8.532l-0.58,0.66l0.814,0.331c5.067,2.053 9.396,5.651 12.355,10.371l0.471,0.75z" fill="#ffffff"></path>
        <path d="M52.5215,96.1343c-0.495,-0.497 -1.195,-0.787 -1.895,-0.786c-0.702,-0.001 -1.401,0.289 -1.896,0.786c-0.496,0.494 -0.787,1.196 -0.785,1.896c-0.002,0.7 0.289,1.402 0.785,1.896c0.495,0.495 1.195,0.787 1.896,0.786c0.7,0.001 1.4,-0.289 1.895,-0.786c0.496,-0.494 0.787,-1.196 0.785,-1.896c0.002,-0.7 -0.289,-1.402 -0.785,-1.896z" fill="#ffffff"></path>
        <path d="M43.6777,104.9756c-0.525,-0.525 -1.207,-0.785 -1.895,-0.785c-0.688,0 -1.371,0.261 -1.897,0.785l-13.951,13.953c-0.001,0.001 0.002,0 0,0.001c-0.495,0.494 -0.786,1.196 -0.785,1.896c-0.001,0.7 0.29,1.402 0.785,1.896c0.495,0.495 1.196,0.787 1.897,0.786c0.699,0.001 1.397,-0.289 1.892,-0.784l13.954,-13.956c0.526,-0.525 0.786,-1.208 0.787,-1.895c-0.001,-0.689 -0.261,-1.372 -0.787,-1.897z" fill="#ffffff"></path>
        <path d="M152.3582,53.743c9.343,1.969 16.387,10.281 16.386,20.202v6.657c-0.003,1.48 -1.201,2.677 -2.682,2.68h-34.38c-1.48,-0.003 -2.678,-1.2 -2.681,-2.68c0.003,-1.48 1.201,-2.679 2.681,-2.682h31.698v-3.975c-0.001,-8.43 -6.855,-15.282 -15.284,-15.283h-16.144l-0.11,0.485c-4.886,21.491 -24.151,37.588 -47.1,37.586c-14.705,0 -27.891,-6.605 -36.76,-17.005l-0.439,-0.514l-30.008,30.009c-0.001,0 -0.001,-0.002 -0.002,-0.001c-0.495,0.497 -1.195,0.787 -1.894,0.786c-0.701,0.001 -1.402,-0.291 -1.897,-0.786c-0.496,-0.494 -0.787,-1.196 -0.785,-1.896c-0.002,-0.697 0.288,-1.395 0.781,-1.889l30.583,-30.584l-0.272,-0.423c-2.961,-4.619 -5.157,-9.774 -6.408,-15.283l-0.111,-0.485h-16.144c-8.43,0.001 -15.283,6.853 -15.284,15.283v3.975h14.508c1.481,0.003 2.679,1.202 2.682,2.682c-0.003,1.48 -1.201,2.677 -2.682,2.68h-17.189c-1.481,-0.003 -2.679,-1.2 -2.682,-2.68v-6.657c-0.002,-9.921 7.041,-18.233 16.386,-20.202l0.908,-0.191l-0.519,-0.769c-1.43,-2.119 -2.264,-4.666 -2.264,-7.407v-2.653c0,-3.663 1.489,-6.981 3.896,-9.389c2.409,-2.407 5.727,-3.896 9.391,-3.896c3.656,0 6.968,1.482 9.374,3.881l0.712,0.71l0.321,-0.953c6.431,-19.126 24.531,-32.946 45.798,-32.944c21.264,-0.002 39.364,13.818 45.795,32.944l0.32,0.953l0.712,-0.71c2.408,-2.399 5.72,-3.881 9.377,-3.881c3.663,0 6.981,1.489 9.389,3.896c2.407,2.408 3.896,5.726 3.896,9.389v2.653c0,2.741 -0.834,5.289 -2.262,7.407l-0.518,0.768zM36.4602,42.723c-0.002,-4.369 -3.551,-7.921 -7.923,-7.922c-4.371,0.001 -7.922,3.553 -7.924,7.922v2.653c0.002,4.37 3.553,7.921 7.924,7.922c4.372,-0.001 7.921,-3.553 7.923,-7.922zM84.7422,91.371c23.677,-0.002 42.936,-19.261 42.937,-42.938c-0.001,-23.678 -19.26,-42.936 -42.937,-42.938c-23.678,0.002 -42.937,19.26 -42.938,42.938c0.001,23.677 19.26,42.936 42.938,42.938zM148.8682,42.723c-0.001,-4.369 -3.553,-7.921 -7.922,-7.922c-4.372,0.001 -7.924,3.553 -7.925,7.922v2.653c0.001,4.37 3.553,7.921 7.925,7.922c4.369,-0.001 7.921,-3.552 7.922,-7.922z" fill="#ffffff"></path>
    </symbol>

    <symbol id="what" viewBox="0 0 155 165">
        <path d="M97.918,116.4272c5.098,5.098 8.249,12.138 8.25,19.917c0,7.779 -3.152,14.819 -8.25,19.918c-5.099,5.097 -12.139,8.249 -19.918,8.249c-7.779,0 -14.819,-3.152 -19.918,-8.249c-5.098,-5.099 -8.25,-12.139 -8.25,-19.918c0,-7.779 3.152,-14.819 8.25,-19.917c5.099,-5.099 12.139,-8.25 19.918,-8.25c7.779,0 14.819,3.151 19.918,8.25zM78,160.3242c13.244,0 23.979,-10.736 23.979,-23.98c0,-13.244 -10.735,-23.98 -23.979,-23.98c-13.244,0 -23.979,10.736 -23.979,23.98c0,13.244 10.735,23.98 23.979,23.98z" fill="#ffffff"></path>
        <path d="M84.5166,136.6191c-1.454,-1.453 -3.457,-2.352 -5.669,-2.352h-1.695c-2.121,-0.001 -3.845,-1.724 -3.845,-3.845c0,-2.121 1.724,-3.845 3.845,-3.845h2.543c1.653,0 2.997,1.343 2.997,2.998v1.695c0.002,1.153 0.935,2.086 2.089,2.088c1.153,-0.002 2.086,-0.935 2.089,-2.088v-1.695c0,-3.714 -2.84,-6.78 -6.46,-7.139l-0.322,-0.031v0v-3.002c-0.003,-1.153 -0.935,-2.086 -2.089,-2.088c-1.153,0.002 -2.087,0.935 -2.088,2.088v3.09v0l-0.289,0.056c-3.692,0.716 -6.493,3.974 -6.492,7.873c0,2.212 0.9,4.216 2.353,5.669c1.454,1.453 3.457,2.352 5.669,2.352h1.694c2.121,0.001 3.845,1.724 3.845,3.845c0,2.122 -1.724,3.845 -3.845,3.846h-2.542c-1.654,-0.001 -2.997,-1.344 -2.997,-2.998c-0.003,-1.154 -0.936,-2.086 -2.089,-2.088c-1.153,0.002 -2.087,0.934 -2.089,2.088c-0.001,3.713 2.84,6.779 6.46,7.138l0.322,0.032v0v3.001c0.001,1.153 0.935,2.086 2.088,2.088c1.154,-0.002 2.086,-0.934 2.088,-2.088v-3.09v0l0.288,-0.056c3.694,-0.715 6.495,-3.975 6.494,-7.873c0,-2.212 -0.9,-4.215 -2.353,-5.669z" fill="#ffffff"></path>
        <path d="M154.2663,79.3723c0.461,0.877 0.398,1.946 -0.163,2.762l-20.618,29.989c-0.497,0.723 -1.328,1.16 -2.205,1.16c-0.877,0 -1.708,-0.437 -2.205,-1.16l-20.618,-29.989c-0.561,-0.816 -0.624,-1.885 -0.163,-2.762c0.461,-0.876 1.378,-1.43 2.368,-1.43h6.371v-47.932c0,-0.705 0.285,-1.394 0.784,-1.892c0.498,-0.498 1.187,-0.784 1.892,-0.784h23.142c0.704,0 1.394,0.286 1.892,0.784c0.499,0.498 0.784,1.187 0.784,1.892v47.932h6.371c0.99,0 1.907,0.554 2.368,1.43zM146.8113,83.2943h-3.96c-0.705,0 -1.393,-0.286 -1.891,-0.784c-0.499,-0.499 -0.784,-1.187 -0.784,-1.892v-47.932h-17.792v47.932c0,0.705 -0.285,1.393 -0.784,1.892c-0.498,0.498 -1.187,0.784 -1.891,0.784h-3.961l15.532,22.591z" fill="#ffffff"></path>
        <path d="M100.1043,50.4857c0.99,0 1.907,0.554 2.368,1.43c0.461,0.877 0.398,1.946 -0.163,2.762l-20.618,29.989c-0.497,0.723 -1.328,1.16 -2.205,1.16c-0.877,0 -1.708,-0.437 -2.205,-1.16l-20.618,-29.989c-0.561,-0.816 -0.624,-1.886 -0.163,-2.762c0.461,-0.876 1.378,-1.43 2.368,-1.43h6.371v-47.932c0,-0.705 0.285,-1.394 0.784,-1.892c0.498,-0.498 1.188,-0.784 1.892,-0.784h23.142c0.704,0 1.394,0.286 1.892,0.784c0.498,0.498 0.784,1.187 0.784,1.892v47.932zM95.0173,55.8377h-3.96c-0.704,0 -1.393,-0.286 -1.891,-0.784c-0.499,-0.499 -0.784,-1.187 -0.784,-1.892v-47.932h-17.792v47.932c0,0.705 -0.286,1.393 -0.784,1.892c-0.498,0.498 -1.187,0.784 -1.891,0.784h-3.961l15.532,22.591z" fill="#ffffff"></path>
        <path d="M44.2869,103.0697c0.99,0 1.907,0.553 2.368,1.43c0.461,0.876 0.398,1.945 -0.163,2.761l-20.618,29.99c-0.497,0.723 -1.328,1.16 -2.205,1.16c-0.877,0 -1.708,-0.437 -2.205,-1.16l-20.618,-29.99c-0.561,-0.816 -0.624,-1.885 -0.163,-2.761c0.461,-0.877 1.378,-1.43 2.368,-1.43h6.371v-73.059c0,-0.705 0.285,-1.394 0.784,-1.893c0.498,-0.498 1.187,-0.783 1.892,-0.783h23.142c0.704,0 1.394,0.285 1.892,0.783c0.499,0.499 0.784,1.188 0.784,1.893v73.059zM39.2009,108.4207h-3.961c-0.705,0 -1.393,-0.285 -1.891,-0.783c-0.499,-0.499 -0.784,-1.188 -0.784,-1.893v-73.059h-17.792v73.059c0,0.705 -0.285,1.394 -0.784,1.893c-0.498,0.498 -1.187,0.783 -1.891,0.783h-3.961l15.532,22.592z" fill="#ffffff"></path>
    </symbol>

    <symbol id="team" viewBox="0 0 162 129">
        <path d="M81.0005,32.0381c17.777,0 28.82,9.132 28.82,23.846c0,1.675 -1.359,3.033 -3.034,3.033h-51.573c-1.675,0 -3.034,-1.358 -3.034,-3.033c0,-14.744 11.043,-23.846 28.821,-23.846zM103.5405,52.8501c-2.002,-13.622 -17.565,-14.744 -22.54,-14.744c-4.976,0 -20.539,1.122 -22.541,14.744z" fill="#ffffff"></path>
        <path d="M81,0.1845c7.958,0 14.41,6.452 14.41,14.41c0,7.959 -6.452,14.41 -14.41,14.41c-7.952,-0.016 -14.394,-6.458 -14.41,-14.41c0,-7.958 6.452,-14.41 14.41,-14.41zM81,22.9375c4.607,0 8.343,-3.735 8.343,-8.343c0,-4.607 -3.736,-8.343 -8.343,-8.343c-4.607,0 -8.343,3.736 -8.343,8.343c0,4.608 3.736,8.343 8.343,8.343z" fill="#ffffff"></path>
        <path d="M29.4267,101.814c17.777,0 28.82,9.132 28.82,23.846c0,1.675 -1.358,3.033 -3.033,3.033h-51.574c-1.675,0 -3.034,-1.358 -3.034,-3.033c0,-14.744 11.043,-23.846 28.821,-23.846zM51.9677,122.626c-2.003,-13.621 -17.536,-14.744 -22.541,-14.744c-5.006,0 -20.539,1.123 -22.541,14.744z" fill="#ffffff"></path>
        <path d="M29.4268,69.9609c7.958,0 14.41,6.451 14.41,14.41c0,7.958 -6.452,14.41 -14.41,14.41c-7.952,-0.017 -14.394,-6.459 -14.41,-14.41c0,-7.959 6.451,-14.41 14.41,-14.41zM29.4268,92.7129c4.607,0 8.343,-3.734 8.343,-8.342c0,-4.608 -3.736,-8.343 -8.343,-8.343c-4.607,0 -8.343,3.735 -8.343,8.343c0,4.608 3.736,8.342 8.343,8.342z" fill="#ffffff"></path>
        <path d="M132.5737,101.814c17.777,0 28.82,9.132 28.82,23.846c0,1.675 -1.358,3.033 -3.033,3.033h-51.574c-1.675,0 -3.034,-1.358 -3.034,-3.033c0,-14.744 11.043,-23.846 28.821,-23.846zM155.1147,122.626c-2.003,-13.621 -17.536,-14.744 -22.541,-14.744c-5.006,0 -20.539,1.123 -22.541,14.744z" fill="#ffffff"></path>
        <path d="M132.5732,69.9609c7.959,0 14.41,6.451 14.41,14.41c0,7.958 -6.451,14.41 -14.41,14.41c-7.952,-0.017 -14.394,-6.459 -14.41,-14.41c0,-7.959 6.452,-14.41 14.41,-14.41zM132.5732,92.7129c4.607,0 8.343,-3.734 8.343,-8.342c0,-4.608 -3.736,-8.343 -8.343,-8.343c-4.607,0 -8.343,3.735 -8.343,8.343c0,4.608 3.736,8.342 8.343,8.342z" fill="#ffffff"></path>
        <path d="M96.6846,96.5664v0l-12.651,-12.712v0v-17.898c0,-1.676 -1.358,-3.034 -3.034,-3.034c-1.675,0 -3.033,1.358 -3.033,3.034v17.898v0l-12.651,12.651c-1.198,1.181 -1.212,3.11 -0.03,4.308c1.181,1.198 3.109,1.212 4.308,0.03l11.406,-11.437v0l11.407,11.437c1.273,1.09 3.188,0.942 4.278,-0.331c0.973,-1.135 0.973,-2.81 0,-3.946z" fill="#ffffff"></path>
    </symbol>

    <symbol id="value" viewBox="0 0 178 178">
        <path d="M92.466,146.2877c7.071,1.576 12.362,7.878 12.36,15.404c0,4.359 -1.776,8.311 -4.644,11.18c-2.869,2.869 -6.823,4.644 -11.182,4.644c-4.36,0 -8.313,-1.775 -11.183,-4.644c-2.868,-2.869 -4.644,-6.821 -4.644,-11.18c-0.002,-7.526 5.289,-13.828 12.36,-15.404l0.488,-0.108v-16.551c0.002,-1.66 1.32,-2.975 2.979,-2.978c1.662,0.003 2.975,1.318 2.978,2.978v16.551zM89,171.5967c5.439,-0.002 9.865,-4.428 9.867,-9.869c-0.002,-5.442 -4.428,-9.867 -9.867,-9.869c-5.44,0.002 -9.866,4.427 -9.868,9.869c0.002,5.441 4.428,9.867 9.868,9.869z" fill="#ffffff"></path>
        <path d="M100.182,5.3024c2.868,2.869 4.644,6.823 4.644,11.182c0.002,7.525 -5.29,13.829 -12.36,15.404l-0.488,0.109v16.549c-0.003,1.661 -1.316,2.976 -2.978,2.978c-1.659,-0.002 -2.977,-1.318 -2.979,-2.978v-16.549l-0.488,-0.109c-7.07,-1.575 -12.362,-7.879 -12.36,-15.404c0,-4.359 1.776,-8.313 4.644,-11.182c2.87,-2.868 6.823,-4.643 11.183,-4.643c4.359,0 8.313,1.775 11.182,4.643zM89,26.3164c5.439,-0.001 9.865,-4.427 9.867,-9.869c-0.002,-5.442 -4.428,-9.865 -9.867,-9.867c-5.44,0.002 -9.866,4.425 -9.868,9.867c0.002,5.442 4.428,9.868 9.868,9.869z" fill="#ffffff"></path>
        <path d="M172.7847,77.9071c2.867,2.869 4.642,6.822 4.642,11.182c0,4.359 -1.775,8.311 -4.642,11.18c-2.869,2.869 -6.821,4.644 -11.181,4.644c-7.526,0.002 -13.827,-5.288 -15.403,-12.358l-0.109,-0.489h-16.55c-1.662,-0.003 -2.976,-1.317 -2.978,-2.977c0.002,-1.661 1.316,-2.978 2.978,-2.98h16.55l0.109,-0.489c1.576,-7.07 7.877,-12.358 15.403,-12.356c4.36,0 8.312,1.775 11.181,4.643zM161.6387,98.9561c5.443,-0.002 9.866,-4.426 9.867,-9.867c-0.001,-5.442 -4.424,-9.868 -9.867,-9.869c-5.44,0.001 -9.866,4.427 -9.867,9.869c0.001,5.441 4.428,9.865 9.867,9.867z" fill="#ffffff"></path>
        <path d="M48.4578,86.1091c1.661,0.002 2.975,1.319 2.978,2.98c-0.003,1.66 -1.316,2.974 -2.978,2.977h-16.548l-0.109,0.489c-1.574,7.07 -7.879,12.36 -15.405,12.358c-4.36,0 -8.312,-1.775 -11.181,-4.644c-2.868,-2.869 -4.642,-6.821 -4.643,-11.18c0.001,-4.361 1.768,-8.314 4.63,-11.182c2.865,-2.868 6.816,-4.643 11.194,-4.643c7.526,-0.002 13.831,5.286 15.405,12.356l0.109,0.489zM16.3608,98.9561c5.439,-0.002 9.865,-4.426 9.867,-9.867c-0.002,-5.442 -4.428,-9.868 -9.867,-9.869c-5.444,0.001 -9.866,4.427 -9.867,9.869c0.001,5.441 4.424,9.865 9.867,9.867z" fill="#ffffff"></path>
        <path d="M151.5192,129.2347c3.079,3.081 4.619,7.13 4.619,11.185c0,4.056 -1.539,8.105 -4.619,11.187c-2.98,2.977 -6.929,4.618 -11.171,4.619c-4.202,0 -8.189,-1.643 -11.167,-4.619c-2.978,-2.981 -4.62,-6.928 -4.621,-11.169c0,-3.014 0.841,-5.915 2.449,-8.435l0.27,-0.423l-11.709,-11.709c-0.591,-0.591 -0.88,-1.346 -0.881,-2.105c0.001,-0.76 0.29,-1.515 0.881,-2.106l0.006,-0.006c0.573,-0.589 1.332,-0.88 2.104,-0.881c0.762,0 1.524,0.286 2.11,0.856l11.701,11.701l0.423,-0.267c2.487,-1.575 5.391,-2.449 8.434,-2.449c4.206,0 8.193,1.643 11.171,4.621zM147.3052,147.4307c1.921,-1.923 2.885,-4.452 2.884,-6.975c0.001,-2.522 -0.962,-5.05 -2.884,-6.972c-1.858,-1.863 -4.32,-2.878 -6.957,-2.876c-2.6,-0.001 -5.091,1.01 -6.956,2.875c-1.826,1.822 -2.879,4.235 -2.878,6.862l0.002,0.142h0.001c0.003,2.595 1.015,5.084 2.875,6.944c1.861,1.862 4.323,2.878 6.956,2.876c2.601,0.001 5.095,-1.012 6.957,-2.876z" fill="#ffffff"></path>
        <path d="M49.2594,26.1298l-0.439,0.444c2.98,2.948 4.617,6.842 4.619,11.032v0.132c-0.001,3.014 -0.841,5.915 -2.449,8.435l-0.271,0.423l11.71,11.708c0.59,0.592 0.879,1.347 0.88,2.106c-0.001,0.759 -0.29,1.514 -0.881,2.107c-0.567,0.568 -1.361,0.874 -2.105,0.872c-0.748,0.002 -1.541,-0.304 -2.109,-0.873l-11.708,-11.707l-0.421,0.268c-2.485,1.575 -5.388,2.449 -8.435,2.449c-4.206,0 -8.192,-1.644 -11.167,-4.619c-2.978,-2.981 -4.62,-6.927 -4.621,-11.169c0,-4.204 1.644,-8.191 4.621,-11.167c2.977,-2.979 6.926,-4.62 11.167,-4.622c4.202,0.001 8.189,1.645 11.167,4.622zM44.6074,44.6938c1.823,-1.824 2.877,-4.233 2.876,-6.829l-0.001,-0.133c0.001,-2.595 -1.013,-5.087 -2.875,-6.95c-1.862,-1.861 -4.323,-2.878 -6.957,-2.877c-2.601,0 -5.094,1.014 -6.956,2.876c-1.867,1.83 -2.876,4.357 -2.876,6.957c-0.001,2.601 1.013,5.093 2.875,6.956c1.859,1.863 4.321,2.878 6.957,2.876c2.6,0.001 5.091,-1.011 6.957,-2.876z" fill="#ffffff"></path>
        <path d="M151.5187,26.534c3.08,3.081 4.619,7.131 4.62,11.187c-0.001,4.054 -1.54,8.104 -4.62,11.185c-2.98,2.977 -6.929,4.619 -11.17,4.62c-3.013,0 -5.913,-0.839 -8.433,-2.448l-0.423,-0.27l-11.746,11.708c-0.564,0.568 -1.361,0.875 -2.106,0.873c-0.745,0.002 -1.542,-0.305 -2.105,-0.872c-0.593,-0.594 -0.883,-1.348 -0.884,-2.107c0.001,-0.759 0.291,-1.513 0.883,-2.106l11.708,-11.707l-0.268,-0.423c-1.575,-2.486 -2.449,-5.389 -2.449,-8.436c0.002,-4.241 1.642,-8.187 4.656,-11.204c2.98,-2.978 6.926,-4.62 11.167,-4.621c4.206,0.001 8.192,1.644 11.17,4.621zM147.3047,44.731c1.922,-1.923 2.886,-4.452 2.885,-6.975c0.001,-2.523 -0.963,-5.051 -2.885,-6.974c-1.857,-1.861 -4.319,-2.878 -6.956,-2.877c-2.599,0 -5.087,1.013 -6.951,2.872h-0.001c0,0 0,0.001 -0.001,0.002c-0.001,0 -0.002,0.001 -0.003,0.002c-1.831,1.794 -2.879,4.238 -2.878,6.864l0.002,0.142h0.001c0.003,2.596 1.015,5.083 2.874,6.944c1.862,1.86 4.323,2.877 6.957,2.875c2.601,0.001 5.094,-1.012 6.956,-2.875z" fill="#ffffff"></path>
        <path d="M62.8709,115.2175l-0.437,0.448c0.584,0.569 0.875,1.322 0.876,2.082c-0.001,0.758 -0.292,1.512 -0.876,2.082l-11.712,11.712l0.267,0.423c1.635,2.579 2.452,5.526 2.452,8.471c-0.001,4.05 -1.542,8.089 -4.624,11.171c-2.98,2.978 -6.924,4.618 -11.166,4.619c-4.206,0 -8.193,-1.643 -11.167,-4.619c-2.979,-2.981 -4.621,-6.928 -4.622,-11.169c0.001,-4.204 1.645,-8.19 4.621,-11.167c2.977,-2.979 6.926,-4.62 11.168,-4.621c3.012,0 5.913,0.839 8.433,2.448l0.422,0.271l11.709,-11.709c0.592,-0.592 1.348,-0.881 2.107,-0.882c0.758,0.001 1.514,0.29 2.108,0.882zM44.6069,147.3935c1.922,-1.904 2.885,-4.425 2.884,-6.942c0.001,-2.518 -0.962,-5.046 -2.884,-6.968c-1.861,-1.862 -4.323,-2.878 -6.956,-2.876c-2.601,-0.001 -5.094,1.011 -6.957,2.876c-1.86,1.857 -2.878,4.32 -2.876,6.954c-0.001,2.601 1.013,5.093 2.876,6.956c1.858,1.862 4.32,2.878 6.957,2.876c2.599,0.001 5.089,-1.01 6.954,-2.873c0,-0.001 0,-0.001 0,-0.001c0.001,0 0.002,-0.001 0.002,-0.001z" fill="#ffffff"></path>
        <path d="M88.9997,86.7448c14.073,0 22.813,7.228 22.813,18.874c0,1.327 -1.075,2.403 -2.401,2.403h-40.823c-1.327,0 -2.401,-1.076 -2.401,-2.403c0,-11.67 8.74,-18.874 22.812,-18.874zM106.8427,103.2178c-1.585,-10.781 -13.904,-11.67 -17.843,-11.67c-3.938,0 -16.257,0.889 -17.842,11.67z" fill="#ffffff"></path>
        <path d="M89,84.343c-6.294,-0.012 -11.394,-5.112 -11.406,-11.406c0,-6.3 5.106,-11.406 11.406,-11.406c6.299,0 11.406,5.106 11.406,11.406c0,6.3 -5.107,11.406 -11.406,11.406zM89,66.333c-3.647,0 -6.604,2.957 -6.604,6.604c0,3.647 2.957,6.604 6.604,6.604c3.647,0 6.604,-2.957 6.604,-6.604c0,-3.647 -2.957,-6.604 -6.604,-6.604z" fill="#ffffff"></path>
    </symbol>

    <symbol id="banking" viewBox="0 0 139 146">
        <path d="M29.5479,36.2348c15.951,0.001 28.881,12.931 28.881,28.881c0,15.952 -12.93,28.881 -28.881,28.881c-15.95,0 -28.88,-12.929 -28.88,-28.881c0,-15.95 12.93,-28.88 28.88,-28.881zM29.5479,88.3828c6.426,-0.001 12.24,-2.604 16.452,-6.814c4.211,-4.212 6.815,-10.027 6.815,-16.453c-0.001,-6.426 -2.604,-12.24 -6.815,-16.452c-4.212,-4.211 -10.026,-6.814 -16.452,-6.814c-6.426,0 -12.24,2.603 -16.452,6.814c-4.211,4.212 -6.815,10.026 -6.815,16.452c0,6.426 2.604,12.241 6.815,16.453c4.212,4.21 10.026,6.814 16.452,6.814z" fill="#ffffff"></path>
        <path d="M32.3496,50.5459v0v-2.37c0,-1.547 -1.253,-2.802 -2.801,-2.802c-1.548,0 -2.802,1.254 -2.802,2.802v2.514c-3.878,0.891 -6.78,4.36 -6.781,8.504c0,4.818 3.917,8.734 8.735,8.735h1.695c1.725,0.003 3.128,1.406 3.132,3.132c-0.004,1.726 -1.406,3.128 -3.132,3.131h-2.543c-1.259,-0.002 -2.281,-1.025 -2.284,-2.284c0,-1.548 -1.254,-2.801 -2.802,-2.802c-1.548,0.001 -2.801,1.254 -2.801,2.802c0.001,3.973 2.953,7.259 6.78,7.801v2.37c0,1.548 1.254,2.802 2.802,2.802c1.548,0 2.802,-1.254 2.802,-2.802v-2.513c3.878,-0.892 6.779,-4.361 6.78,-8.506c0,-4.817 -3.917,-8.734 -8.734,-8.735h-1.694c-1.727,-0.003 -3.129,-1.405 -3.132,-3.131c0.003,-1.726 1.405,-3.128 3.132,-3.131h2.542c1.257,0.002 2.281,1.025 2.284,2.284v1.695c0.001,1.548 1.254,2.801 2.801,2.802c1.548,-0.001 2.802,-1.254 2.802,-2.802v-1.695c-0.001,-3.973 -2.954,-7.26 -6.781,-7.801z" fill="#ffffff"></path>
        <path d="M39.98,114.491c1.548,0 2.802,1.254 2.802,2.802v25.439c0,1.548 -1.254,2.802 -2.802,2.802h-20.864c-1.548,0 -2.802,-1.254 -2.802,-2.802v-25.439c0.001,-1.549 1.254,-2.802 2.802,-2.802zM21.918,139.931h15.261v-19.837h-15.261z" fill="#ffffff"></path>
        <path d="M120.4209,64.3237v0h-20.864c-1.548,0 -2.802,1.254 -2.802,2.802v49.691c0,1.548 1.254,2.8 2.802,2.8c1.548,0 2.802,-1.252 2.802,-2.801v-46.889v0h15.261v0v70.004v0h-15.261v0v-11.705c0,-1.548 -1.254,-2.801 -2.802,-2.801c-1.548,0 -2.801,1.253 -2.801,2.801v14.507c0,1.548 1.253,2.801 2.801,2.801h20.864c1.548,0 2.802,-1.253 2.802,-2.801v-75.607c0,-1.548 -1.254,-2.802 -2.802,-2.802z" fill="#ffffff"></path>
        <path d="M80.2,96.24c1.548,0 2.802,1.254 2.802,2.802v43.69c0,1.548 -1.254,2.802 -2.802,2.802h-20.863c-1.548,0 -2.802,-1.254 -2.802,-2.802v-43.69c0,-1.548 1.254,-2.802 2.802,-2.802zM62.138,139.931h15.262v-38.088h-15.262z" fill="#ffffff"></path>
        <path d="M109.9883,0.0073c15.951,0 28.881,12.93 28.881,28.88c0,15.952 -12.93,28.881 -28.881,28.881c-15.95,0 -28.88,-12.929 -28.88,-28.881c0,-15.95 12.93,-28.88 28.88,-28.88zM109.9883,52.1543c6.426,0 12.24,-2.604 16.452,-6.814c4.211,-4.212 6.814,-10.026 6.815,-16.453c-0.001,-6.425 -2.604,-12.24 -6.815,-16.451c-4.212,-4.211 -10.026,-6.815 -16.452,-6.815c-6.426,0 -12.24,2.604 -16.452,6.815c-4.211,4.211 -6.815,10.026 -6.815,16.451c0,6.427 2.604,12.241 6.815,16.453c4.212,4.21 10.026,6.814 16.452,6.814z" fill="#ffffff"></path>
        <path d="M112.79,14.3179v0v-2.371c0,-1.547 -1.253,-2.801 -2.801,-2.801c-1.548,0 -2.802,1.254 -2.802,2.801v2.515c-3.878,0.891 -6.78,4.36 -6.781,8.504c0,4.818 3.918,8.734 8.735,8.735h1.695c1.726,0.003 3.128,1.406 3.132,3.132c-0.004,1.725 -1.406,3.128 -3.132,3.131h-2.543c-1.258,-0.002 -2.281,-1.026 -2.284,-2.284c0,-1.548 -1.254,-2.802 -2.802,-2.802c-1.548,0 -2.801,1.254 -2.801,2.802c0.001,3.973 2.952,7.259 6.78,7.801v2.37c0,1.548 1.254,2.801 2.802,2.801c1.548,0 2.802,-1.253 2.802,-2.801v-2.514c3.878,-0.892 6.779,-4.36 6.78,-8.505c0,-4.817 -3.917,-8.734 -8.734,-8.735h-1.694c-1.727,-0.003 -3.128,-1.405 -3.132,-3.131c0.004,-1.726 1.405,-3.128 3.132,-3.132h2.543c1.256,0.003 2.281,1.026 2.284,2.285v1.695c0,1.547 1.253,2.801 2.8,2.801c1.548,0 2.802,-1.254 2.802,-2.801v-1.695c-0.001,-3.974 -2.954,-7.26 -6.781,-7.801z" fill="#ffffff"></path>
    </symbol>

    <symbol id="equity" viewBox="0 0 144 142">
        <path d="M95.9365,91.3086c-3.385,0 -6.139,-2.383 -6.139,-5.312c0,-2.931 2.754,-5.315 6.139,-5.315c3.386,0 6.14,2.384 6.14,5.315c0,1.54 1.249,2.79 2.79,2.79c1.541,0 2.791,-1.25 2.791,-2.79c0,-5.115 -3.811,-9.415 -8.93,-10.582v-1.451c0,-1.541 -1.25,-2.79 -2.791,-2.79c-1.54,0 -2.79,1.249 -2.79,2.79v1.451c-5.119,1.167 -8.93,5.467 -8.93,10.582c0,6.006 5.258,10.893 11.72,10.893c3.386,0 6.14,2.384 6.14,5.315c0,2.929 -2.754,5.313 -6.14,5.313c-3.385,0 -6.139,-2.384 -6.139,-5.313c0,-1.542 -1.25,-2.792 -2.79,-2.792c-1.541,0 -2.791,1.25 -2.791,2.792c0,5.113 3.811,9.413 8.93,10.58v1.205c0,1.541 1.25,2.791 2.79,2.791c1.541,0 2.791,-1.25 2.791,-2.791v-1.205c5.119,-1.167 8.93,-5.467 8.93,-10.58c0,-6.008 -5.258,-10.896 -11.721,-10.896z" fill="#ffffff"></path>
        <path d="M126.501,74.7109c-3.646,-5.681 -8.781,-10.226 -14.852,-13.144c-1.389,-0.668 -3.056,-0.083 -3.724,1.306c-0.668,1.389 -0.083,3.056 1.305,3.724c10.58,5.086 17.416,15.951 17.416,27.682c0,5.02 -1.238,9.997 -3.579,14.397c-0.723,1.36 -0.208,3.05 1.154,3.773c0.417,0.223 0.866,0.328 1.307,0.328c0.999,0 1.965,-0.538 2.466,-1.48c2.769,-5.203 4.233,-11.088 4.233,-17.018c0,-6.965 -1.981,-13.732 -5.726,-19.568z" fill="#ffffff"></path>
        <path d="M100.3232,58.0029v0h-0.187c-1.542,0 -2.792,1.249 -2.792,2.79c0,1.541 1.25,2.791 2.792,2.791h0.161v0h0.013c1.535,0 2.784,-1.241 2.79,-2.778c0.007,-1.541 -1.236,-2.796 -2.777,-2.803z" fill="#ffffff"></path>
        <path d="M82.6689,121.9609c-10.579,-5.086 -17.414,-15.951 -17.414,-27.682c0,-5.019 1.237,-9.998 3.578,-14.396c0.724,-1.36 0.207,-3.051 -1.153,-3.775c-1.361,-0.723 -3.051,-0.208 -3.775,1.153c-2.768,5.203 -4.231,11.088 -4.231,17.018c0,6.965 1.979,13.732 5.725,19.569c3.646,5.679 8.782,10.224 14.852,13.143c0.39,0.188 0.802,0.277 1.207,0.277c1.039,0 2.037,-0.583 2.518,-1.582c0.667,-1.39 0.082,-3.057 -1.307,-3.725z" fill="#ffffff"></path>
        <path d="M91.7646,124.9746v0l-0.161,-0.001c-1.549,-0.003 -2.797,1.236 -2.804,2.777c-0.007,1.541 1.237,2.797 2.778,2.804l0.187,0.001c1.541,0 2.79,-1.25 2.79,-2.791c0,-1.541 -1.249,-2.79 -2.79,-2.79z" fill="#ffffff"></path>
        <path d="M108.6212,48.5617c20.025,5.557 34.767,23.946 34.767,45.718c0,26.157 -21.281,47.438 -47.438,47.438c-13.656,0 -25.981,-5.803 -34.645,-15.069h-32.885c-7.078,0 -12.837,-5.759 -12.837,-12.836c0,-4.066 1.901,-7.693 4.86,-10.046c-2.959,-2.354 -4.86,-5.982 -4.86,-10.046c0,-4.065 1.901,-7.692 4.86,-10.046c-2.959,-2.353 -4.86,-5.98 -4.86,-10.046c0,-4.064 1.901,-7.692 4.86,-10.046c-2.959,-2.353 -4.86,-5.981 -4.86,-10.046c0,-7.077 5.759,-12.836 12.837,-12.836h7.277c-1.421,-2.065 -2.255,-4.564 -2.255,-7.255c0,-2.691 0.834,-5.19 2.255,-7.255h-22.347c-7.077,0 -12.836,-5.759 -12.836,-12.837c0,-7.077 5.759,-12.836 12.836,-12.836h68.368c7.078,0 12.836,5.759 12.836,12.836c0,2.691 -0.833,5.19 -2.254,7.256h22.346c7.077,0 12.836,5.758 12.836,12.836c0,7.078 -5.759,12.837 -12.836,12.837h-7.264c0.483,0.707 0.899,1.469 1.239,2.279zM46.2792,26.1907c-4.001,0 -7.256,3.255 -7.256,7.255c0,4.001 3.255,7.255 7.256,7.255h68.367c4,0 7.255,-3.254 7.255,-7.255c0,-4 -3.255,-7.255 -7.255,-7.255zM81.7182,20.6097c4.001,0 7.255,-3.255 7.255,-7.256c0,-4 -3.254,-7.255 -7.255,-7.255h-68.368c-4,0 -7.254,3.255 -7.254,7.255c0,4.001 3.254,7.256 7.254,7.256zM28.4202,46.2827c-4.001,0 -7.256,3.254 -7.256,7.254c0,4.001 3.255,7.256 7.256,7.256h33.961c8.592,-8.614 20.468,-13.952 33.569,-13.952c1.349,0 2.683,0.059 4.003,0.17c-0.966,-0.467 -2.042,-0.728 -3.166,-0.728zM28.4202,66.3737c-4.001,0 -7.256,3.255 -7.256,7.255c0,4.001 3.255,7.255 7.256,7.255h22.02c1.555,-5.275 4.004,-10.17 7.172,-14.51zM28.4202,86.4647c-4.001,0 -7.256,3.255 -7.256,7.256c0,4.001 3.255,7.255 7.256,7.255h20.566c-0.31,-2.189 -0.474,-4.424 -0.474,-6.696c0,-2.663 0.223,-5.272 0.646,-7.815zM56.8212,121.0677c-3,-4.368 -5.287,-9.261 -6.695,-14.511h-21.706c-4.001,0 -7.256,3.255 -7.256,7.256c0,4 3.255,7.255 7.256,7.255zM95.9502,136.1367c23.08,0 41.857,-18.777 41.857,-41.857c0,-23.081 -18.777,-41.858 -41.857,-41.858c-23.08,0 -41.857,18.777 -41.857,41.858c0,23.08 18.777,41.857 41.857,41.857z" fill="#ffffff"></path>
    </symbol>

    <symbol id="funds" viewBox="0 0 157 130">
        <path d="M106.4639,0.288c6.121,0.011 11.095,4.982 11.106,11.106c-0.011,6.121 -4.985,11.091 -11.106,11.102c-1.207,0 -2.368,-0.195 -3.457,-0.553l-0.313,-0.101l-19.356,27.051l0.198,0.262c1.399,1.86 2.229,4.168 2.23,6.67c-0.011,6.121 -4.982,11.094 -11.103,11.105c-6.122,-0.011 -11.096,-4.984 -11.108,-11.105c0.001,-0.801 0.088,-1.58 0.252,-2.334l0.069,-0.321l-13.221,-7.501l-0.237,0.223c-1.985,1.847 -4.642,2.979 -7.559,2.979c-2.919,0 -5.572,-1.132 -7.557,-2.979l-0.24,-0.223l-13.218,7.499l0.069,0.32c0.161,0.754 0.247,1.536 0.248,2.337c-0.011,6.121 -4.982,11.094 -11.103,11.105c-6.122,-0.011 -11.096,-4.984 -11.108,-11.105c0.012,-6.122 4.986,-11.095 11.108,-11.105c2.917,0 5.571,1.132 7.555,2.979l0.238,0.223l13.22,-7.501l-0.068,-0.319c-0.162,-0.755 -0.247,-1.536 -0.248,-2.335c0.011,-6.122 4.981,-11.095 11.104,-11.106c6.121,0.011 11.095,4.984 11.106,11.106c-0.001,0.799 -0.087,1.579 -0.251,2.333l-0.071,0.32l13.219,7.502l0.241,-0.223c1.985,-1.847 4.641,-2.98 7.56,-2.981c1.204,0.001 2.366,0.198 3.456,0.554l0.31,0.103l19.358,-27.054l-0.197,-0.259c-1.399,-1.861 -2.229,-4.167 -2.23,-6.668c0.011,-6.124 4.982,-11.095 11.104,-11.106zM11.0539,60.891c2.797,-0.001 5.065,-2.273 5.065,-5.068c0,-2.796 -2.268,-5.065 -5.065,-5.065c-2.794,0 -5.066,2.269 -5.066,5.065c0,2.795 2.272,5.067 5.066,5.068zM42.8589,42.831c2.793,0 5.063,-2.271 5.064,-5.064c0,-2.796 -2.271,-5.068 -5.064,-5.068c-2.794,0 -5.066,2.272 -5.066,5.068c0.001,2.793 2.272,5.064 5.066,5.064zM74.6629,60.891c2.793,-0.001 5.065,-2.273 5.065,-5.068c0,-2.796 -2.272,-5.065 -5.065,-5.065c-2.798,0 -5.066,2.269 -5.066,5.065c0,2.795 2.268,5.067 5.066,5.068zM106.4639,16.458c2.796,0 5.064,-2.271 5.064,-5.064c0,-2.796 -2.268,-5.068 -5.064,-5.068c-2.794,0 -5.065,2.272 -5.065,5.068c0,2.793 2.271,5.064 5.065,5.064z" fill="#ffffff"></path>
        <path d="M21.105,119.174c-0.003,1.668 -1.355,3.015 -3.021,3.019h-14.057c-1.667,-0.004 -3.018,-1.351 -3.021,-3.019v-30.618c0.003,-1.667 1.355,-3.018 3.021,-3.021h14.057c1.666,0.003 3.018,1.354 3.021,3.021zM15.063,91.575h-8.019v24.58h8.019z" fill="#ffffff"></path>
        <path d="M52.9057,119.174c-0.003,1.669 -1.351,3.017 -3.02,3.02h-14.058c-1.666,-0.003 -3.014,-1.351 -3.018,-3.02v-48.326c0.004,-1.669 1.351,-3.017 3.018,-3.02h14.058c1.669,0.003 3.017,1.352 3.02,3.02zM46.8677,73.866h-8.019v42.289h8.019z" fill="#ffffff"></path>
        <path d="M84.7109,119.174c-0.004,1.668 -1.355,3.015 -3.021,3.019h-14.058c-1.667,-0.004 -3.018,-1.351 -3.021,-3.019v-30.618c0.003,-1.667 1.355,-3.018 3.021,-3.021h14.058c1.665,0.003 3.017,1.354 3.021,3.021zM78.6719,91.575h-8.019v24.58h8.019z" fill="#ffffff"></path>
        <path d="M113.4941,116.1553v0h-11.041v0v-7.152c-0.003,-1.668 -1.35,-3.016 -3.016,-3.019c-1.671,0.003 -3.018,1.351 -3.022,3.019v10.171c0.004,1.668 1.351,3.017 3.022,3.02h14.057c1.666,-0.003 3.014,-1.352 3.017,-3.02c-0.003,-1.668 -1.35,-3.016 -3.017,-3.019z" fill="#ffffff"></path>
        <path d="M155.8715,116.0901c0.784,1.36 1.202,2.903 1.202,4.468c0,3.189 -1.714,6.156 -4.477,7.751c-1.403,0.809 -2.941,1.197 -4.455,1.197c-3.094,0 -6.108,-1.605 -7.762,-4.472l-12.666,-21.946c-2.087,0.463 -4.212,0.714 -6.349,0.714c-2.579,0 -5.172,-0.338 -7.728,-1.025c-7.652,-2.05 -14.051,-6.961 -18.014,-13.822c-2.692,-4.659 -3.97,-9.755 -3.969,-14.783c-0.001,-10.26 5.32,-20.252 14.827,-25.741c4.656,-2.692 9.753,-3.97 14.784,-3.97c10.26,0 20.253,5.321 25.744,14.829c2.635,4.568 3.985,9.644 3.984,14.786c0.001,2.577 -0.336,5.17 -1.02,7.725c-1.253,4.675 -3.589,8.872 -6.771,12.341l12.67,21.947l-0.386,0.223zM144.7915,80.4121c0.558,-2.095 0.835,-4.219 0.836,-6.329c-0.001,-4.211 -1.102,-8.365 -3.266,-12.112c-4.495,-7.787 -12.681,-12.147 -21.088,-12.148c-4.123,0.001 -8.292,1.047 -12.11,3.252c-7.789,4.496 -12.148,12.681 -12.149,21.088c0.001,4.121 1.049,8.292 3.254,12.11c3.249,5.625 8.485,9.644 14.755,11.325c2.092,0.56 4.217,0.837 6.33,0.838c4.211,-0.001 8.367,-1.104 12.114,-3.267c5.623,-3.247 9.642,-8.484 11.324,-14.757zM149.9185,123.6641c1.104,-0.638 1.791,-1.829 1.791,-3.106c0,-0.622 -0.167,-1.241 -0.481,-1.787l-12.102,-20.962c-0.951,0.714 -1.929,1.4 -2.978,2.006c-1.046,0.603 -2.129,1.11 -3.221,1.577l12.098,20.961c0.66,1.147 1.866,1.789 3.107,1.789c0.607,0 1.222,-0.154 1.786,-0.479z" fill="#ffffff"></path>
    </symbol>
</svg>