<svg version="1" xmlns="http://www.w3.org/2000/svg" width="933.333" height="933.333" viewBox="0 0 700.000000 700.000000"><path d="M341.3 184c-62.1 7.8-116.9 45.6-142.9 98.5-11.5 23.6-16.1 44.9-15.1 71 .9 23.8 5.6 43.1 15.7 64.2 9.1 19.1 18.6 32 35.9 48.5 29 27.8 68 45.5 110.1 49.9 15.5 1.6 41.7.6 54.2-2 45.8-9.8 83.6-39.6 104.7-82.4 5.5-11.2 9.8-23.3 11.5-33l.7-3.7h-8.6l-2.2 7.9c-9.6 34.4-40.4 70.5-73.8 86.6-19 9.2-38.9 13.5-62.1 13.5-44.3 0-76.2-18.8-90.7-53.6-10.4-24.8-14-50.7-14-100.9-.1-45.1 2.7-69.4 10.3-92.1 10.3-30.4 27.7-48.3 56.2-57.9 15.1-5 27.6-6.8 43.3-6.2 29.4 1.2 52.7 9.3 74.9 25.9 36.2 27.1 55 61.8 58.2 107l.6 9.8h8.8V193h-4.7l-4.8.1-3.3 6.9c-9.1 18.7-21.7 24.3-37.7 16.7-3.9-1.9-10.1-5.5-13.9-8.1-14.9-9.9-39.3-19.7-58.1-23.1-10.5-2-42.2-2.8-53.2-1.5z"/></svg>