<svg xmlns="http://www.w3.org/2000/svg" xmlns:xlink="http://www.w3.org/1999/xlink" width="244" height="39" viewBox="0 0 244 39"><defs><path id="a" d="M571.383 90.129h1.536c2.2 0 3.833-.533 4.9-1.6 1.065-1.066 1.598-2.698 1.598-4.898V62.038c-.137-1.126-.346-2.021-.627-2.686a4.138 4.138 0 0 0-1.265-1.663c-1.024-.904-2.559-1.356-4.606-1.356h-1.536v-.947h22.514v.947h-1.478c-2.2 0-3.829.528-4.887 1.587-1.057 1.057-1.586 2.694-1.586 4.91v20.8c0 2.2.533 3.833 1.6 4.9 1.065 1.066 2.69 1.599 4.873 1.599h1.478v.998h-22.514z"/><path id="b" d="M628.212 54.67h.946l14.378 31.262c.461.972.977 1.774 1.548 2.405.571.631 1.215 1.087 1.931 1.368.716.282 1.561.423 2.533.423h.947v.998h-20.749v-.998h2.712c1.348 0 2.332-.183 2.955-.55.622-.367.935-.934.935-1.702 0-.477-.124-1.057-.372-1.739-.247-.682-.789-1.919-1.624-3.709a11.865 11.865 0 0 1-.23-.512 8.646 8.646 0 0 0-.334-.69l-.588-1.306h-15.145l-1.152 2.661a7.087 7.087 0 0 0-.562 2.737c0 .785.218 1.561.652 2.328.435.768 1.002 1.347 1.701 1.74.46.273.874.456 1.242.55.366.094.89.158 1.573.192v.998h-14.557v-.998c1.057-.119 1.897-.307 2.52-.563.623-.256 1.317-.682 2.085-1.279 1.807-1.398 3.573-4.033 5.296-7.905zm-2.712 8.365l-7.01 15.938h14.198z"/><path id="c" d="M663.5 55.028h14.352l24.842 25.737V65.362c0-1.875-.32-3.516-.96-4.924-.639-1.407-1.566-2.477-2.777-3.211a6.88 6.88 0 0 0-1.957-.87c-.655-.17-1.57-.298-2.748-.383v-.947h17.702v.947h-.357c-2.576 0-4.537.819-5.885 2.456-1.347 1.638-2.022 4.016-2.022 7.138v25.558h-.842l-30.855-31.698v21.234c0 2.064.247 3.714.742 4.95a5.955 5.955 0 0 0 2.405 2.904c.904.546 2.004.896 3.3 1.049.716.12 1.741.205 3.071.256v.946h-18.65v-.946c1.91-.102 3.465-.44 4.667-1.01 1.203-.572 2.09-1.421 2.661-2.547.572-1.125.858-2.524.858-4.195V61.86c0-1.246-.278-2.304-.832-3.173-.554-.87-1.36-1.54-2.417-2.008-1.059-.47-2.337-.704-3.838-.704h-.46z"/><path id="d" d="M757.757 55.145h.895v12.547h-.895c-1.075-2.951-2.294-5.253-3.658-6.908-.99-1.16-2.23-2.18-3.723-3.057-1.493-.878-3.163-1.57-5.014-2.072a21.324 21.324 0 0 0-5.615-.755c-1.417 0-2.678.197-3.788.589-1.108.392-2.046.972-2.813 1.739a6.602 6.602 0 0 0-1.305 1.842c-.324.683-.486 1.339-.486 1.97 0 1.194.461 2.226 1.381 3.096.427.426 1.037.836 1.83 1.228.793.393 1.816.776 3.07 1.15 1.253.376 3.006.837 5.258 1.382.613.188 1.03.299 1.253.333l1.254.307 1.995.512c3.378.87 5.84 1.637 7.393 2.302 1.551.666 2.874 1.544 3.966 2.635a8.466 8.466 0 0 1 1.982 2.814 8.624 8.624 0 0 1 .704 3.48c0 1.228-.265 2.46-.792 3.697a9.911 9.911 0 0 1-2.252 3.26c-1.262 1.298-2.82 2.27-4.67 2.918-1.85.648-3.96.972-6.33.972-1.657 0-3.21-.166-4.67-.5-1.458-.332-3.237-.94-5.334-1.828-1.365-.546-2.405-.916-3.12-1.112a7.688 7.688 0 0 0-2.023-.295c-1.21 0-2.238.32-3.083.96-.844.639-1.402 1.547-1.676 2.724h-.895V74.548h.895c.36 2.934 1.544 5.595 3.556 7.982 1.211 1.399 2.76 2.699 4.645 3.902a25.54 25.54 0 0 0 5.922 2.8c2.064.666 4.025.999 5.883.999 1.656 0 3.168-.273 4.542-.82 1.373-.544 2.444-1.304 3.211-2.276a5.188 5.188 0 0 0 1.152-3.3c0-1.296-.52-2.465-1.562-3.505-.478-.46-1.096-.887-1.854-1.28-.759-.391-1.74-.792-2.943-1.201-1.202-.41-2.85-.896-4.95-1.46l-2.559-.69c-3.99-1.074-6.754-1.91-8.288-2.507-1.722-.63-3.075-1.261-4.055-1.893a9.542 9.542 0 0 1-2.545-2.405c-1.058-1.364-1.587-2.865-1.587-4.502 0-1.98.59-3.757 1.765-5.335 1.177-1.577 2.824-2.81 4.938-3.697 2.114-.886 4.46-1.33 7.036-1.33 3.888 0 7.921 1.084 12.1 3.25 1.467.733 2.464 1.099 2.993 1.099 1.33 0 2.231-.748 2.866-3.234z"/><path id="e" d="M555.445 77.349c-.342 1.625-1.267 4.083-3.632 6.852a15.505 15.505 0 0 1-3.491 3.006 15.246 15.246 0 0 1-4.094 1.829 16.79 16.79 0 0 1-4.567.614c-1.705 0-3.278-.27-4.72-.805-1.441-.538-2.665-1.318-3.671-2.342-.82-.853-1.497-1.914-2.034-3.184-.537-1.271-.934-2.828-1.19-4.67-.255-1.842-.383-3.956-.383-6.344 0-.107.007-.201.007-.308 0-.106-.007-.2-.007-.307 0-2.388.128-4.502.384-6.344.255-1.842.652-3.4 1.189-4.67s1.215-2.331 2.034-3.184c1.006-1.023 2.23-1.804 3.67-2.342 1.443-.536 3.016-.805 4.72-.805 1.588 0 3.11.204 4.568.614.93.26 1.8.645 2.652 1.077v-.014c.046.026.088.054.134.079.11.058.228.105.337.165.436.226.85.528 1.253.866 3.8 2.386 6.904 7.15 6.904 13.448h.975V54.513h-.975c-1.22 3.048-2.601 3.289-3.871 3.094-.54-.083-1.303-.575-2.488-1.341a18.574 18.574 0 0 0-1.798-1.042v.018c-2.43-1.216-5.181-1.844-8.277-1.844-3.651 0-7.054.848-10.21 2.546-3.154 1.697-5.661 3.982-7.52 6.856-1.84 2.844-2.765 5.91-2.785 9.197.02 3.288.945 6.884 2.785 9.728 1.859 2.874 4.366 5.159 7.52 6.856 3.156 1.697 6.559 2.545 10.21 2.545 5.798 0 10.429-2.131 13.892-6.395.869-1.092 1.55-2.141 2.046-3.147.485-.988 1.219-2.87 1.332-4.235z"/></defs><use fill="#2d2d2d" xlink:href="#a" transform="translate(-518 -53)"/><use fill="#2d2d2d" xlink:href="#b" transform="translate(-518 -53)"/><use fill="#2d2d2d" xlink:href="#c" transform="translate(-518 -53)"/><use fill="#2d2d2d" xlink:href="#d" transform="translate(-518 -53)"/><use fill="#2d2d2d" xlink:href="#e" transform="translate(-518 -53)"/></svg>