<svg xmlns="http://www.w3.org/2000/svg"><symbol id="arrow" viewBox="0 0 7 10"><path d="M425.857 1730.346l4.596 4.596-4.596 4.595" fill-opacity="0" stroke="#fff" stroke-miterlimit="50" transform="translate(-425 -1730)"/></symbol><symbol id="close" viewBox="0 0 14 15"><g fill-opacity="0" stroke="#7c7c7c" stroke-miterlimit="50"><path d="M863.433 290.94l12.74 12.74M876.173 290.94l-12.74 12.74" transform="translate(-863 -290)"/></g></symbol><symbol id="cians" viewBox="0 0 106 106"><path d="M103.182 67.241c-.955 4.552-3.546 11.434-10.166 19.185-2.9 3.396-6.22 6.148-9.776 8.415a42.6 42.6 0 0 1-11.462 5.121c-4.081 1.148-8.343 1.72-12.785 1.72-4.775 0-9.18-.753-13.215-2.256-4.036-1.504-7.462-3.69-10.28-6.555-2.292-2.387-4.19-5.359-5.694-8.916-1.503-3.558-2.614-7.917-3.33-13.074C25.76 65.724 25.4 59.804 25.4 53.12c0-.3.018-.564.02-.86-.002-.298-.02-.56-.02-.86 0-6.687.36-12.606 1.076-17.763.715-5.158 1.826-9.517 3.329-13.074 1.505-3.557 3.402-6.529 5.695-8.917 2.817-2.864 6.243-5.05 10.279-6.554 4.035-1.503 8.44-2.256 13.215-2.256 4.442 0 8.704.572 12.785 1.72 2.603.73 5.044 1.805 7.423 3.015l.003-.04c.128.072.247.15.374.223.312.162.637.293.946.46 1.218.632 2.379 1.48 3.508 2.425 10.636 6.68 19.329 20.02 19.329 37.652h2.728V3.306h-2.728c-3.414 8.534-7.283 9.207-10.838 8.663-1.51-.232-3.652-1.61-6.967-3.754-1.864-1.204-3.44-2.12-5.032-2.917v.047C73.72 1.942 66.014.185 57.347.185c-10.221 0-19.748 2.374-28.581 7.127-8.834 4.75-15.855 11.15-21.058 19.195C2.556 34.47-.035 43.057-.09 52.258c.054 9.203 2.645 19.273 7.797 27.234 5.203 8.046 12.224 14.446 21.058 19.196 8.833 4.752 18.36 7.126 28.58 7.126 16.234 0 29.199-5.967 38.894-17.905 2.436-3.057 4.345-5.993 5.73-8.812 1.359-2.764 3.415-8.033 3.73-11.856z" fill="#fff"/></symbol><symbol id="who" viewBox="0 0 169 124"><path d="M109.533 23.64c6.353 6.355 10.285 15.12 10.286 24.793-.001 10.039-4.24 19.103-11.023 25.506l-.379.352c-6.246 5.723-14.557 9.219-23.675 9.219-9.119 0-17.431-3.497-23.678-9.22l-.379-.354c-6.783-6.4-11.02-15.464-11.021-25.503.001-9.672 3.933-18.438 10.285-24.792 6.354-6.352 15.12-10.285 24.793-10.285 9.671 0 18.437 3.933 24.791 10.285zm-5.981 47.784l-.243-.458c-3.619-6.848-10.681-11.161-18.567-11.16-7.889-.001-14.951 4.312-18.568 11.16l-.242.458.407.323a29.566 29.566 0 0 0 18.403 6.4c6.94 0 13.339-2.394 18.402-6.4zM77.15 46.853c.001 4.187 3.403 7.589 7.592 7.59 4.186-.001 7.588-3.403 7.589-7.59v-2.57c-.001-4.186-3.403-7.587-7.589-7.59-4.189.003-7.591 3.404-7.592 7.59zm30.932 19.949a29.58 29.58 0 0 0 6.374-18.37c-.002-16.385-13.329-29.712-29.714-29.713-16.387 0-29.715 13.328-29.716 29.714a29.568 29.568 0 0 0 6.375 18.369l.548.695.471-.75a26.145 26.145 0 0 1 12.354-10.371l.815-.331-.58-.66a12.878 12.878 0 0 1-3.22-8.532v-2.567a12.91 12.91 0 0 1 3.798-9.156 12.904 12.904 0 0 1 9.155-3.8c3.571 0 6.806 1.452 9.154 3.8a12.91 12.91 0 0 1 3.798 9.156v2.567c0 3.268-1.216 6.25-3.22 8.532l-.58.66.814.33a26.162 26.162 0 0 1 12.355 10.372l.471.75zM52.522 96.134a2.706 2.706 0 0 0-1.895-.786 2.705 2.705 0 0 0-1.897.786 2.706 2.706 0 0 0-.784 1.896c-.002.7.289 1.402.785 1.896a2.715 2.715 0 0 0 1.895.786c.7.001 1.4-.289 1.896-.786a2.706 2.706 0 0 0 .785-1.896 2.706 2.706 0 0 0-.786-1.896zM43.678 104.976a2.664 2.664 0 0 0-1.895-.785c-.688 0-1.371.26-1.897.785l-13.951 13.953c-.001 0 .002 0 0 0a2.714 2.714 0 0 0-.785 1.897c-.001.7.29 1.402.785 1.896a2.718 2.718 0 0 0 1.897.786 2.707 2.707 0 0 0 1.892-.784l13.954-13.956a2.668 2.668 0 0 0 .787-1.895 2.669 2.669 0 0 0-.787-1.897z" fill="#fff"/><path d="M152.358 53.743c9.343 1.969 16.387 10.281 16.386 20.202v6.657a2.685 2.685 0 0 1-2.682 2.68h-34.38a2.685 2.685 0 0 1-2.68-2.68 2.687 2.687 0 0 1 2.68-2.682h31.698v-3.975c0-8.43-6.855-15.282-15.284-15.283h-16.144l-.11.485c-4.886 21.491-24.15 37.588-47.1 37.586-14.705 0-27.89-6.605-36.76-17.005l-.439-.514-30.008 30.009s0-.002-.002-.001a2.705 2.705 0 0 1-1.894.786 2.718 2.718 0 0 1-1.897-.786 2.706 2.706 0 0 1-.785-1.896 2.704 2.704 0 0 1 .781-1.889l30.583-30.584-.272-.423a48.009 48.009 0 0 1-6.408-15.283l-.11-.485H21.385c-8.43.001-15.283 6.853-15.284 15.283v3.975H20.61a2.687 2.687 0 0 1 2.682 2.682 2.685 2.685 0 0 1-2.682 2.68H3.421a2.685 2.685 0 0 1-2.682-2.68v-6.657C.737 64.024 7.78 55.712 17.125 53.743l.908-.191-.519-.769a13.193 13.193 0 0 1-2.264-7.407v-2.653a13.24 13.24 0 0 1 3.896-9.389 13.245 13.245 0 0 1 9.391-3.896c3.656 0 6.968 1.482 9.374 3.881l.712.71.321-.953C45.375 13.95 63.475.13 84.742.132c21.264-.002 39.364 13.818 45.795 32.944l.32.953.712-.71a13.243 13.243 0 0 1 9.377-3.881 13.24 13.24 0 0 1 9.39 3.896 13.24 13.24 0 0 1 3.895 9.389v2.653c0 2.741-.834 5.289-2.262 7.407l-.518.768zM36.46 42.723c-.002-4.369-3.55-7.921-7.923-7.922-4.37.001-7.922 3.553-7.924 7.922v2.653c.002 4.37 3.553 7.921 7.924 7.922 4.372-.001 7.921-3.553 7.923-7.922zm48.282 48.648c23.677-.002 42.936-19.261 42.937-42.938 0-23.678-19.26-42.936-42.937-42.938-23.678.002-42.937 19.26-42.938 42.938.001 23.677 19.26 42.936 42.938 42.938zm64.126-48.648c0-4.369-3.553-7.921-7.922-7.922-4.372.001-7.924 3.553-7.925 7.922v2.653c.001 4.37 3.553 7.921 7.925 7.922 4.37-.001 7.921-3.552 7.922-7.922z" fill="#fff"/></symbol><symbol id="what" viewBox="0 0 155 165"><path d="M97.918 116.427a28.08 28.08 0 0 1 8.25 19.917c0 7.78-3.152 14.82-8.25 19.918-5.099 5.097-12.139 8.25-19.918 8.25s-14.819-3.153-19.918-8.25c-5.098-5.099-8.25-12.139-8.25-19.918s3.152-14.819 8.25-19.917c5.099-5.099 12.139-8.25 19.918-8.25s14.819 3.151 19.918 8.25zM78 160.324c13.244 0 23.979-10.736 23.979-23.98S91.244 112.364 78 112.364s-23.979 10.736-23.979 23.98 10.735 23.98 23.979 23.98z" fill="#fff"/><path d="M84.517 136.62a7.995 7.995 0 0 0-5.67-2.353h-1.694a3.849 3.849 0 0 1-3.845-3.845 3.848 3.848 0 0 1 3.845-3.845h2.543a3 3 0 0 1 2.997 2.998v1.695a2.091 2.091 0 0 0 2.089 2.088 2.092 2.092 0 0 0 2.089-2.088v-1.695c0-3.714-2.84-6.78-6.46-7.139l-.322-.03v-3.003a2.092 2.092 0 0 0-2.09-2.088 2.09 2.09 0 0 0-2.087 2.088v3.09l-.29.056c-3.691.716-6.492 3.974-6.491 7.873 0 2.212.9 4.216 2.353 5.67a7.995 7.995 0 0 0 5.669 2.351h1.694a3.849 3.849 0 0 1 3.845 3.845 3.85 3.85 0 0 1-3.845 3.846h-2.542a3 3 0 0 1-2.997-2.998 2.092 2.092 0 0 0-2.09-2.088 2.091 2.091 0 0 0-2.088 2.088c-.001 3.713 2.84 6.78 6.46 7.138l.322.032v3.001A2.09 2.09 0 0 0 78 155.395a2.09 2.09 0 0 0 2.088-2.088v-3.09l.288-.056c3.694-.715 6.495-3.975 6.494-7.873 0-2.212-.9-4.215-2.353-5.669zM154.266 79.372a2.684 2.684 0 0 1-.163 2.762l-20.618 29.99a2.687 2.687 0 0 1-2.205 1.16 2.687 2.687 0 0 1-2.205-1.16l-20.618-29.99a2.684 2.684 0 0 1-.163-2.762 2.684 2.684 0 0 1 2.368-1.43h6.371V30.01c0-.705.285-1.394.784-1.892a2.694 2.694 0 0 1 1.892-.784h23.142c.704 0 1.394.286 1.892.784a2.69 2.69 0 0 1 .784 1.892v47.932h6.371c.99 0 1.907.554 2.368 1.43zm-7.455 3.922h-3.96a2.691 2.691 0 0 1-1.89-.784 2.691 2.691 0 0 1-.785-1.892V32.686h-17.792v47.932c0 .705-.285 1.393-.784 1.892a2.693 2.693 0 0 1-1.89.784h-3.962l15.532 22.591zM100.104 50.486c.99 0 1.907.554 2.368 1.43a2.684 2.684 0 0 1-.163 2.762L81.691 84.667a2.687 2.687 0 0 1-2.205 1.16 2.687 2.687 0 0 1-2.205-1.16l-20.618-29.99a2.684 2.684 0 0 1-.163-2.761 2.684 2.684 0 0 1 2.368-1.43h6.371V2.554c0-.705.285-1.394.784-1.892a2.695 2.695 0 0 1 1.892-.784h23.142c.704 0 1.394.286 1.892.784.498.498.784 1.187.784 1.892v47.932zm-5.087 5.352h-3.96a2.693 2.693 0 0 1-1.89-.784 2.691 2.691 0 0 1-.785-1.892V5.23H70.59v47.932c0 .705-.286 1.393-.784 1.892a2.693 2.693 0 0 1-1.89.784h-3.962l15.532 22.59zM44.287 103.07c.99 0 1.907.553 2.368 1.43a2.683 2.683 0 0 1-.163 2.76l-20.618 29.99a2.687 2.687 0 0 1-2.205 1.16 2.687 2.687 0 0 1-2.205-1.16L.846 107.26a2.683 2.683 0 0 1-.163-2.76 2.683 2.683 0 0 1 2.368-1.43h6.37V30.01c0-.704.286-1.393.785-1.892a2.693 2.693 0 0 1 1.892-.783H35.24c.704 0 1.394.285 1.892.783.499.499.784 1.188.784 1.893v73.059zm-5.086 5.35H35.24a2.69 2.69 0 0 1-1.891-.782 2.693 2.693 0 0 1-.784-1.893v-73.06H14.773v73.06c0 .705-.285 1.394-.784 1.893a2.692 2.692 0 0 1-1.891.783H8.137l15.532 22.592z" fill="#fff"/></symbol><symbol id="team" viewBox="0 0 162 129"><path d="M81 32.038c17.778 0 28.82 9.132 28.82 23.846a3.034 3.034 0 0 1-3.033 3.033H55.213a3.034 3.034 0 0 1-3.033-3.033c0-14.744 11.043-23.846 28.82-23.846zm22.54 20.812C101.538 39.228 85.975 38.106 81 38.106c-4.976 0-20.539 1.122-22.54 14.744zM81 .184c7.958 0 14.41 6.452 14.41 14.41 0 7.96-6.452 14.41-14.41 14.41-7.952-.016-14.394-6.458-14.41-14.41C66.59 6.638 73.042.184 81 .184zm0 22.753a8.343 8.343 0 1 0 0-16.686 8.343 8.343 0 0 0 0 16.686zM29.427 101.814c17.777 0 28.82 9.132 28.82 23.846a3.033 3.033 0 0 1-3.033 3.033H3.64a3.034 3.034 0 0 1-3.034-3.033c0-14.744 11.043-23.846 28.82-23.846zm22.54 20.812c-2.002-13.621-17.535-14.744-22.54-14.744-5.006 0-20.54 1.123-22.541 14.744zM29.427 69.96c7.958 0 14.41 6.452 14.41 14.41 0 7.959-6.452 14.41-14.41 14.41-7.952-.016-14.394-6.458-14.41-14.41 0-7.958 6.45-14.41 14.41-14.41zm0 22.753a8.342 8.342 0 1 0 0-16.685 8.343 8.343 0 0 0 0 16.685zM132.574 101.814c17.777 0 28.82 9.132 28.82 23.846a3.033 3.033 0 0 1-3.033 3.033h-51.574a3.034 3.034 0 0 1-3.034-3.033c0-14.744 11.043-23.846 28.82-23.846zm22.54 20.812c-2.002-13.621-17.535-14.744-22.54-14.744-5.006 0-20.54 1.123-22.541 14.744zM132.573 69.96c7.96 0 14.41 6.452 14.41 14.41 0 7.959-6.45 14.41-14.41 14.41-7.952-.016-14.394-6.458-14.41-14.41 0-7.958 6.452-14.41 14.41-14.41zm0 22.753a8.342 8.342 0 1 0 0-16.685 8.343 8.343 0 0 0 0 16.685zM96.685 96.566L84.034 83.854V65.956a3.034 3.034 0 1 0-6.067 0v17.898L65.316 96.505a3.046 3.046 0 1 0 4.278 4.338L81 89.406l11.407 11.437a3.034 3.034 0 0 0 4.278-4.277z" fill="#fff"/></symbol><symbol id="value" viewBox="0 0 178 178"><path d="M92.466 146.288c7.071 1.576 12.362 7.878 12.36 15.404 0 4.359-1.776 8.31-4.644 11.18-2.869 2.869-6.823 4.644-11.182 4.644-4.36 0-8.313-1.775-11.183-4.644-2.868-2.87-4.644-6.821-4.644-11.18-.002-7.526 5.289-13.828 12.36-15.404l.488-.108v-16.551A2.963 2.963 0 0 1 89 126.65a2.961 2.961 0 0 1 2.978 2.978v16.55zM89 171.597c5.439-.002 9.865-4.428 9.867-9.87-.002-5.441-4.428-9.866-9.867-9.868-5.44.002-9.866 4.427-9.868 9.869.002 5.44 4.428 9.867 9.868 9.869zM100.182 5.302c2.868 2.87 4.644 6.823 4.644 11.182.002 7.525-5.29 13.83-12.36 15.404l-.488.11v16.548A2.96 2.96 0 0 1 89 51.524a2.963 2.963 0 0 1-2.979-2.978V31.997l-.488-.109c-7.07-1.575-12.362-7.879-12.36-15.404 0-4.359 1.776-8.313 4.644-11.182C80.687 2.434 84.64.66 89 .66c4.359 0 8.313 1.775 11.182 4.643zM89 26.316c5.439 0 9.865-4.427 9.867-9.869-.002-5.442-4.428-9.865-9.867-9.867-5.44.002-9.866 4.425-9.868 9.867.002 5.442 4.428 9.868 9.868 9.87zM172.785 77.907c2.867 2.87 4.642 6.822 4.642 11.182s-1.775 8.311-4.642 11.18c-2.87 2.87-6.821 4.644-11.181 4.644-7.526.002-13.827-5.288-15.403-12.358l-.11-.489h-16.55a2.96 2.96 0 0 1-2.977-2.977 2.961 2.961 0 0 1 2.978-2.98h16.55l.109-.489c1.576-7.07 7.877-12.358 15.403-12.356 4.36 0 8.312 1.775 11.18 4.643zm-11.146 21.05c5.443-.003 9.866-4.427 9.867-9.868-.001-5.442-4.424-9.868-9.867-9.869-5.44.001-9.866 4.427-9.867 9.87 0 5.44 4.428 9.864 9.867 9.866zM48.458 86.11a2.962 2.962 0 0 1 2.978 2.98 2.96 2.96 0 0 1-2.978 2.976H31.91l-.11.49c-1.573 7.07-7.878 12.36-15.404 12.357-4.36 0-8.312-1.775-11.181-4.644A15.774 15.774 0 0 1 .572 89.09a15.787 15.787 0 0 1 4.63-11.182 15.762 15.762 0 0 1 11.194-4.643c7.526-.002 13.83 5.286 15.405 12.356l.109.49zM16.36 98.955c5.439-.002 9.865-4.426 9.867-9.867-.002-5.442-4.428-9.868-9.867-9.869-5.444.001-9.866 4.427-9.867 9.87 0 5.44 4.424 9.864 9.867 9.866zM151.52 129.235a15.77 15.77 0 0 1 4.618 11.185c0 4.056-1.539 8.105-4.619 11.187-2.98 2.977-6.929 4.618-11.17 4.619a15.731 15.731 0 0 1-11.168-4.62 15.672 15.672 0 0 1-4.62-11.168c0-3.014.84-5.915 2.448-8.435l.27-.423-11.709-11.71a2.962 2.962 0 0 1-.88-2.104c0-.76.29-1.515.88-2.106l.006-.006a2.916 2.916 0 0 1 2.104-.881c.762 0 1.524.286 2.11.856l11.701 11.7.423-.266a15.73 15.73 0 0 1 8.434-2.45c4.206 0 8.193 1.644 11.171 4.622zm-4.215 18.196a9.842 9.842 0 0 0 2.884-6.975 9.831 9.831 0 0 0-2.884-6.972 9.725 9.725 0 0 0-6.957-2.876 9.793 9.793 0 0 0-6.956 2.875c-1.826 1.822-2.879 4.235-2.878 6.862l.002.142h.001a9.803 9.803 0 0 0 2.875 6.944 9.74 9.74 0 0 0 6.956 2.876 9.794 9.794 0 0 0 6.957-2.876zM49.26 26.13l-.44.444c2.98 2.948 4.617 6.842 4.62 11.032v.132a15.613 15.613 0 0 1-2.45 8.435l-.27.423 11.71 11.708a2.97 2.97 0 0 1 .88 2.106 2.97 2.97 0 0 1-.882 2.107 3.022 3.022 0 0 1-2.105.872 3.023 3.023 0 0 1-2.109-.873L46.506 50.809l-.42.268a15.717 15.717 0 0 1-8.436 2.449 15.723 15.723 0 0 1-11.167-4.62 15.67 15.67 0 0 1-4.62-11.168c0-4.204 1.643-8.191 4.62-11.167 2.977-2.98 6.926-4.62 11.167-4.622a15.734 15.734 0 0 1 11.167 4.622zm-4.653 18.564c1.823-1.824 2.877-4.233 2.876-6.83v-.132a9.797 9.797 0 0 0-2.876-6.95 9.75 9.75 0 0 0-6.957-2.877 9.804 9.804 0 0 0-6.956 2.876c-1.867 1.83-2.876 4.357-2.876 6.957a9.8 9.8 0 0 0 2.875 6.956 9.729 9.729 0 0 0 6.957 2.876 9.798 9.798 0 0 0 6.957-2.876zM151.519 26.534c3.08 3.081 4.619 7.131 4.62 11.187-.001 4.054-1.54 8.104-4.62 11.185a15.675 15.675 0 0 1-11.17 4.62 15.59 15.59 0 0 1-8.433-2.448l-.423-.27-11.746 11.708a3.018 3.018 0 0 1-2.106.873 3.018 3.018 0 0 1-2.105-.872 2.967 2.967 0 0 1-.884-2.107 2.966 2.966 0 0 1 .883-2.106l11.708-11.707-.268-.423a15.723 15.723 0 0 1-2.45-8.436c.003-4.241 1.643-8.187 4.657-11.204a15.665 15.665 0 0 1 11.167-4.621 15.733 15.733 0 0 1 11.17 4.621zm-4.214 18.197a9.84 9.84 0 0 0 2.885-6.975 9.837 9.837 0 0 0-2.885-6.974 9.735 9.735 0 0 0-6.956-2.877 9.808 9.808 0 0 0-6.951 2.872h-.001l-.001.002-.003.002a9.558 9.558 0 0 0-2.878 6.864l.002.142a9.806 9.806 0 0 0 2.875 6.944 9.749 9.749 0 0 0 6.957 2.875 9.795 9.795 0 0 0 6.956-2.875zM62.87 115.218l-.436.447c.584.57.875 1.322.876 2.082a2.9 2.9 0 0 1-.876 2.082l-11.712 11.712.267.423a15.814 15.814 0 0 1 2.452 8.471 15.745 15.745 0 0 1-4.624 11.171c-2.98 2.978-6.924 4.618-11.166 4.62a15.717 15.717 0 0 1-11.167-4.62 15.668 15.668 0 0 1-4.622-11.169 15.732 15.732 0 0 1 4.62-11.167c2.978-2.979 6.927-4.62 11.169-4.62 3.012 0 5.913.838 8.433 2.447l.422.271 11.709-11.709a2.965 2.965 0 0 1 2.107-.882c.758.001 1.514.29 2.108.882zm-18.263 32.175a9.741 9.741 0 0 0 2.884-6.942 9.829 9.829 0 0 0-2.884-6.968 9.74 9.74 0 0 0-6.956-2.876 9.791 9.791 0 0 0-6.957 2.876 9.734 9.734 0 0 0-2.876 6.954 9.797 9.797 0 0 0 2.876 6.956 9.73 9.73 0 0 0 6.957 2.876 9.797 9.797 0 0 0 6.954-2.873l.002-.001zM89 86.745c14.073 0 22.813 7.228 22.813 18.874a2.402 2.402 0 0 1-2.401 2.403H68.589a2.401 2.401 0 0 1-2.401-2.403c0-11.67 8.74-18.874 22.812-18.874zm17.843 16.473C105.258 92.437 92.939 91.548 89 91.548c-3.938 0-16.257.889-17.842 11.67zM89 84.343c-6.294-.012-11.394-5.112-11.406-11.406 0-6.3 5.106-11.406 11.406-11.406 6.299 0 11.406 5.106 11.406 11.406 0 6.3-5.107 11.406-11.406 11.406zm0-18.01a6.604 6.604 0 1 0 0 13.209 6.604 6.604 0 0 0 0-13.209z" fill="#fff"/></symbol><symbol id="banking" viewBox="0 0 139 146"><path d="M29.548 36.235c15.95 0 28.88 12.93 28.88 28.88 0 15.953-12.93 28.882-28.88 28.882S.668 81.067.668 65.116c0-15.95 12.93-28.88 28.88-28.881zm0 52.148A23.2 23.2 0 0 0 46 81.569a23.195 23.195 0 0 0 6.815-16.453A23.197 23.197 0 0 0 46 48.664a23.192 23.192 0 0 0-16.452-6.814 23.192 23.192 0 0 0-16.452 6.814A23.193 23.193 0 0 0 6.28 65.116a23.195 23.195 0 0 0 6.815 16.453 23.196 23.196 0 0 0 16.452 6.814z" fill="#fff"/><path d="M32.35 50.546v-2.37a2.801 2.801 0 1 0-5.603 0v2.514c-3.878.89-6.78 4.36-6.781 8.504 0 4.818 3.917 8.734 8.735 8.735h1.695a3.142 3.142 0 0 1 3.132 3.132 3.14 3.14 0 0 1-3.132 3.13h-2.543a2.29 2.29 0 0 1-2.284-2.283 2.802 2.802 0 0 0-5.603 0c0 3.973 2.953 7.259 6.78 7.8v2.37a2.801 2.801 0 1 0 5.604 0v-2.512c3.878-.892 6.779-4.361 6.78-8.506 0-4.817-3.917-8.734-8.734-8.735h-1.694a3.14 3.14 0 0 1-3.132-3.131 3.14 3.14 0 0 1 3.132-3.131h2.542a2.292 2.292 0 0 1 2.284 2.284v1.695a2.802 2.802 0 0 0 5.603 0v-1.695c-.001-3.973-2.954-7.26-6.781-7.801zM39.98 114.491a2.801 2.801 0 0 1 2.802 2.802v25.439a2.801 2.801 0 0 1-2.802 2.802H19.116a2.801 2.801 0 0 1-2.802-2.802v-25.439a2.801 2.801 0 0 1 2.802-2.802zm-18.062 25.44h15.261v-19.837H21.918zM120.42 64.324H99.558a2.801 2.801 0 0 0-2.802 2.802v49.69a2.8 2.8 0 0 0 2.802 2.8 2.8 2.8 0 0 0 2.802-2.8v-46.89h15.26v70.005h-15.26v-11.705a2.8 2.8 0 0 0-2.802-2.801 2.8 2.8 0 0 0-2.801 2.8v14.508a2.8 2.8 0 0 0 2.8 2.8h20.865a2.8 2.8 0 0 0 2.802-2.8V67.126a2.801 2.801 0 0 0-2.802-2.802zM80.2 96.24a2.801 2.801 0 0 1 2.802 2.802v43.69a2.801 2.801 0 0 1-2.802 2.802H59.337a2.801 2.801 0 0 1-2.802-2.802v-43.69a2.801 2.801 0 0 1 2.802-2.802zm-18.062 43.691H77.4v-38.088H62.138zM109.988.007c15.951 0 28.881 12.93 28.881 28.88 0 15.952-12.93 28.881-28.88 28.881s-28.88-12.929-28.88-28.88c0-15.95 12.93-28.88 28.88-28.88zm0 52.147c6.426 0 12.24-2.604 16.452-6.814a23.197 23.197 0 0 0 6.815-16.453 23.194 23.194 0 0 0-6.815-16.45 23.193 23.193 0 0 0-16.452-6.816 23.193 23.193 0 0 0-16.452 6.815 23.19 23.19 0 0 0-6.815 16.451 23.193 23.193 0 0 0 6.815 16.453 23.196 23.196 0 0 0 16.452 6.814z" fill="#fff"/><path d="M112.79 14.318v-2.371a2.801 2.801 0 1 0-5.603 0v2.515c-3.878.89-6.78 4.36-6.781 8.504 0 4.818 3.918 8.734 8.735 8.735h1.695a3.141 3.141 0 0 1 3.132 3.132 3.141 3.141 0 0 1-3.132 3.13h-2.543a2.292 2.292 0 0 1-2.284-2.283 2.801 2.801 0 1 0-5.603 0c.001 3.973 2.952 7.259 6.78 7.8v2.37a2.8 2.8 0 0 0 2.802 2.802 2.8 2.8 0 0 0 2.802-2.801v-2.514c3.878-.892 6.779-4.36 6.78-8.505 0-4.817-3.917-8.734-8.734-8.735h-1.694a3.14 3.14 0 0 1-3.132-3.131 3.141 3.141 0 0 1 3.132-3.132h2.543a2.294 2.294 0 0 1 2.284 2.285v1.695a2.8 2.8 0 1 0 5.602 0v-1.695c-.001-3.974-2.954-7.26-6.781-7.801z" fill="#fff"/></symbol><symbol id="equity" viewBox="0 0 144 142"><path d="M95.936 91.309c-3.385 0-6.139-2.383-6.139-5.312 0-2.931 2.755-5.315 6.14-5.315s6.14 2.384 6.14 5.315a2.79 2.79 0 0 0 5.58 0c0-5.115-3.81-9.415-8.93-10.582v-1.451a2.79 2.79 0 0 0-5.58 0v1.45c-5.12 1.168-8.93 5.468-8.93 10.583 0 6.006 5.257 10.893 11.72 10.893 3.385 0 6.14 2.384 6.14 5.315 0 2.929-2.755 5.313-6.14 5.313-3.386 0-6.14-2.384-6.14-5.313a2.792 2.792 0 1 0-5.58 0c0 5.113 3.81 9.413 8.93 10.58v1.205a2.791 2.791 0 0 0 5.58 0v-1.205c5.12-1.167 8.93-5.467 8.93-10.58 0-6.008-5.257-10.896-11.72-10.896zM126.501 74.71a36.355 36.355 0 0 0-14.852-13.143 2.79 2.79 0 0 0-2.419 5.03c10.58 5.086 17.416 15.95 17.416 27.682a30.75 30.75 0 0 1-3.579 14.397 2.789 2.789 0 0 0 2.461 4.1 2.79 2.79 0 0 0 2.466-1.48 36.347 36.347 0 0 0 4.233-17.017 36.16 36.16 0 0 0-5.726-19.568zM100.323 58.003h-.187a2.79 2.79 0 1 0 0 5.58H100.31a2.79 2.79 0 0 0 .013-5.58zM82.669 121.96c-10.58-5.085-17.414-15.95-17.414-27.681 0-5.02 1.237-9.998 3.578-14.396a2.792 2.792 0 0 0-4.928-2.622 36.357 36.357 0 0 0-4.231 17.018 36.156 36.156 0 0 0 5.725 19.569A36.38 36.38 0 0 0 80.25 126.99a2.793 2.793 0 0 0 3.725-1.305 2.792 2.792 0 0 0-1.307-3.725zM91.765 124.975l-.161-.001a2.792 2.792 0 0 0-.026 5.581h.187a2.79 2.79 0 0 0 0-5.58z" fill="#fff"/><path d="M108.621 48.562c20.025 5.557 34.767 23.946 34.767 45.718 0 26.157-21.28 47.438-47.438 47.438-13.656 0-25.98-5.803-34.645-15.07H28.42c-7.078 0-12.837-5.758-12.837-12.835 0-4.066 1.901-7.693 4.86-10.046-2.959-2.354-4.86-5.982-4.86-10.046 0-4.065 1.901-7.692 4.86-10.046-2.959-2.353-4.86-5.98-4.86-10.046 0-4.064 1.901-7.692 4.86-10.046-2.959-2.353-4.86-5.981-4.86-10.046 0-7.077 5.76-12.836 12.837-12.836h7.277a12.757 12.757 0 0 1-2.255-7.255c0-2.691.834-5.19 2.255-7.255H13.35C6.273 26.19.514 20.43.514 13.354S6.274.518 13.35.518h68.368c7.078 0 12.836 5.759 12.836 12.836 0 2.69-.833 5.19-2.254 7.256h22.346c7.077 0 12.836 5.758 12.836 12.836s-5.759 12.837-12.836 12.837h-7.264c.483.707.9 1.469 1.24 2.279zM46.28 26.19c-4 0-7.256 3.255-7.256 7.255S42.278 40.7 46.28 40.7h68.367c4 0 7.255-3.254 7.255-7.255 0-4-3.255-7.255-7.255-7.255zm35.44-5.581c4 0 7.254-3.255 7.254-7.256 0-4-3.254-7.255-7.255-7.255H13.35c-4 0-7.254 3.255-7.254 7.255S9.35 20.61 13.35 20.61zM28.42 46.283c-4 0-7.256 3.254-7.256 7.254 0 4 3.255 7.256 7.256 7.256h33.961c8.592-8.614 20.468-13.952 33.57-13.952 1.348 0 2.682.059 4.002.17a7.263 7.263 0 0 0-3.166-.728zm0 20.09c-4 0-7.256 3.256-7.256 7.256s3.255 7.255 7.256 7.255h22.02a47.289 47.289 0 0 1 7.172-14.51zm0 20.092c-4 0-7.256 3.255-7.256 7.256 0 4 3.255 7.255 7.256 7.255h20.566a47.586 47.586 0 0 1 .172-14.511zm28.401 34.603a47.24 47.24 0 0 1-6.695-14.511H28.42c-4 0-7.256 3.255-7.256 7.256 0 4 3.255 7.255 7.256 7.255zm39.13 15.069c23.08 0 41.856-18.777 41.856-41.857 0-23.081-18.777-41.858-41.857-41.858S54.093 71.199 54.093 94.28c0 23.08 18.777 41.857 41.857 41.857z" fill="#fff"/></symbol><symbol id="funds" viewBox="0 0 157 130"><path d="M106.464.288c6.12.011 11.095 4.982 11.106 11.106-.011 6.121-4.985 11.091-11.106 11.102-1.207 0-2.368-.195-3.457-.553l-.313-.101-19.356 27.051.198.262a11.064 11.064 0 0 1 2.23 6.67c-.011 6.121-4.982 11.094-11.103 11.105-6.122-.011-11.096-4.984-11.108-11.105 0-.801.088-1.58.252-2.334l.069-.321-13.221-7.501-.237.223a11.064 11.064 0 0 1-7.56 2.979 11.056 11.056 0 0 1-7.556-2.979l-.24-.223-13.218 7.499.069.32c.16.754.247 1.536.248 2.337-.011 6.121-4.982 11.094-11.103 11.105C4.936 66.919-.038 61.946-.05 55.825c.012-6.122 4.986-11.095 11.108-11.105 2.917 0 5.57 1.132 7.555 2.979l.238.223 13.22-7.501-.068-.319a11.186 11.186 0 0 1-.248-2.335c.01-6.122 4.98-11.095 11.104-11.106 6.12.011 11.095 4.984 11.106 11.106a11.028 11.028 0 0 1-.251 2.333l-.071.32 13.219 7.502.24-.223a11.07 11.07 0 0 1 11.017-2.427l.31.103 19.358-27.054-.197-.259a11.062 11.062 0 0 1-2.23-6.668C95.37 5.27 100.342.299 106.464.288zm-95.41 60.603a5.066 5.066 0 1 0-5.066-5.068 5.073 5.073 0 0 0 5.066 5.068zm31.805-18.06a5.07 5.07 0 0 0 5.064-5.064 5.07 5.07 0 0 0-5.064-5.068 5.071 5.071 0 0 0-5.066 5.068 5.07 5.07 0 0 0 5.066 5.064zm31.804 18.06a5.072 5.072 0 0 0 5.065-5.068 5.066 5.066 0 1 0-5.065 5.068zm31.8-44.433a5.067 5.067 0 0 0 0-10.132 5.07 5.07 0 0 0-5.064 5.068 5.069 5.069 0 0 0 5.065 5.064zM21.105 119.174a3.026 3.026 0 0 1-3.021 3.019H4.027a3.025 3.025 0 0 1-3.021-3.019V88.556a3.027 3.027 0 0 1 3.021-3.021h14.057a3.027 3.027 0 0 1 3.021 3.021zm-6.042-27.599H7.044v24.58h8.019zM52.906 119.174a3.022 3.022 0 0 1-3.02 3.02H35.828a3.023 3.023 0 0 1-3.018-3.02V70.848a3.023 3.023 0 0 1 3.018-3.02h14.058a3.023 3.023 0 0 1 3.02 3.02zm-6.038-45.308h-8.02v42.289h8.02zM84.71 119.174a3.026 3.026 0 0 1-3.02 3.019H67.632a3.025 3.025 0 0 1-3.021-3.019V88.556a3.027 3.027 0 0 1 3.02-3.021H81.69a3.029 3.029 0 0 1 3.02 3.021zm-6.038-27.599h-8.02v24.58h8.02zM113.494 116.155h-11.04v-7.152a3.02 3.02 0 0 0-3.017-3.019 3.023 3.023 0 0 0-3.022 3.02v10.17a3.024 3.024 0 0 0 3.022 3.02h14.057a3.022 3.022 0 0 0 3.017-3.02 3.02 3.02 0 0 0-3.017-3.019zM155.871 116.09a8.958 8.958 0 0 1 1.202 4.468 8.97 8.97 0 0 1-4.477 7.751 8.95 8.95 0 0 1-12.217-3.275l-12.666-21.946a29.305 29.305 0 0 1-6.349.714 29.74 29.74 0 0 1-7.728-1.025c-7.652-2.05-14.05-6.96-18.014-13.822a29.46 29.46 0 0 1-3.969-14.783c0-10.26 5.32-20.252 14.827-25.74a29.458 29.458 0 0 1 14.784-3.97c10.26 0 20.254 5.32 25.745 14.828 2.635 4.568 3.985 9.644 3.984 14.786a29.803 29.803 0 0 1-1.02 7.725 29.505 29.505 0 0 1-6.772 12.341l12.67 21.947-.386.223zm-11.08-35.678c.559-2.095.836-4.219.837-6.329a24.157 24.157 0 0 0-3.266-12.112c-4.495-7.787-12.681-12.147-21.088-12.148a24.147 24.147 0 0 0-12.11 3.252c-7.79 4.496-12.148 12.681-12.15 21.088a24.155 24.155 0 0 0 3.255 12.11c3.249 5.625 8.485 9.644 14.755 11.325 2.092.56 4.217.837 6.33.838a24.176 24.176 0 0 0 12.114-3.267c5.623-3.247 9.642-8.484 11.324-14.757zm5.127 43.252a3.598 3.598 0 0 0 1.791-3.106c0-.622-.167-1.24-.48-1.787L139.125 97.81c-.95.714-1.929 1.4-2.978 2.006-1.046.603-2.129 1.11-3.22 1.577l12.097 20.961a3.577 3.577 0 0 0 3.107 1.79c.607 0 1.222-.155 1.786-.48z" fill="#fff"/></symbol></svg>